<?xml version="1.0" standalone="no"?><!DOCTYPE svg PUBLIC "-//W3C//DTD SVG 1.1//EN" "http://www.w3.org/Graphics/SVG/1.1/DTD/svg11.dtd"><svg t="1710765700571" class="icon" viewBox="0 0 1024 1024" version="1.1" xmlns="http://www.w3.org/2000/svg" p-id="8561" xmlns:xlink="http://www.w3.org/1999/xlink" width="200" height="200"><path d="M224 645.744L183.28 686.4a32.304 32.304 0 0 1-26.752 9.136A31.592 31.592 0 0 1 152 696a32 32 0 0 1-32-32V568h-40A80 80 0 0 1 0 488V168a80 80 0 0 1 80-80h472a80 80 0 0 1 80 80v32S481.136 292.4 368 416C280.456 511.648 224 645.744 224 645.744z" fill="#AFE4FE" p-id="8562"></path><path d="M944 792h-104v112a31.12 31.12 0 0 1-36.488 31.544A32.216 32.216 0 0 1 776.8 926.4L642.4 792H304a80 80 0 0 1-80-80V280a80 80 0 0 1 80-80h640a80 80 0 0 1 80 80v432a80 80 0 0 1-80 80zM416 440a56 56 0 1 0 56 56 56 56 0 0 0-56-56z m208 0a56 56 0 1 0 56 56 56 56 0 0 0-56-56z m208 0a56 56 0 1 0 56 56 56 56 0 0 0-56-56z" fill="#325FD3" p-id="8563"></path></svg>